<svg width="107" height="98" viewBox="0 0 107 98" fill="none" xmlns="http://www.w3.org/2000/svg">
<path d="M5.35692 5.67736C5.70478 2.44801 8.43065 0 11.6787 0H43.2313C46.4793 0 49.2052 2.44802 49.553 5.67737L54.1517 48.369C54.5566 52.1284 51.611 55.4083 47.8299 55.4083H7.08003C3.29891 55.4083 0.353308 52.1284 0.758259 48.369L5.35692 5.67736Z" fill="#6E5551"/>
<path d="M68.9929 7.50145C69.3373 4.26885 72.0646 1.81665 75.3155 1.81665H95.9292C99.1801 1.81665 101.907 4.26886 102.252 7.50146L105.348 36.5681C105.748 40.325 102.804 43.6 99.0256 43.6H72.2191C68.441 43.6 65.4963 40.325 65.8965 36.5681L68.9929 7.50145Z" fill="#EFC8C9"/>
<path d="M34.3947 36.5664C34.7399 33.3346 37.4669 30.8833 40.7171 30.8833H80.2711C83.5213 30.8833 86.2483 33.3346 86.5935 36.5665L92.3167 90.1581C92.7179 93.9155 89.7731 97.1916 85.9943 97.1916H34.9939C31.2151 97.1916 28.2703 93.9155 28.6715 90.1581L34.3947 36.5664Z" fill="#8B6852"/>
</svg>
