<svg width="142" height="158" viewBox="0 0 142 158" fill="none" xmlns="http://www.w3.org/2000/svg">
<ellipse cx="41.4151" cy="120.354" rx="37.6924" ry="36.7875" fill="#FC6B8C"/>
<path d="M36.2964 31.3375C36.2964 49.05 36.2964 49.05 18.1482 49.05C0 49.05 1.02123e-09 49.05 0 31.3375C-1.02123e-09 13.625 8.12523 13.625 18.1482 13.625C28.1712 13.625 36.2964 21.5552 36.2964 31.3375Z" fill="#D71961"/>
<path d="M111.208 17.034C127.9 26.4401 133.514 47.4506 123.747 63.9622C113.979 80.4738 92.5293 86.234 75.8367 76.8279C44.4938 59.1664 44.9047 60.9925 63.2977 29.8997C73.0652 13.3881 94.5153 7.62795 111.208 17.034Z" fill="#8E398A"/>
</svg>
