<svg width="128" height="124" viewBox="0 0 128 124" fill="none" xmlns="http://www.w3.org/2000/svg">
<rect width="44.1395" height="78.1637" rx="17.2583" transform="matrix(0.715645 0.698464 -0.715645 0.698464 75.6799 20.5533)" fill="#FF6E3D"/>
<circle cx="9.65552" cy="9.65552" r="9.65552" transform="matrix(0.715645 0.698464 -0.715645 0.698464 74.3638 92.4896)" fill="#3A825E"/>
<circle cx="9.65552" cy="9.65552" r="9.65552" transform="matrix(0.715645 0.698464 -0.715645 0.698464 92.7903 74.5055)" fill="#FCDE7E"/>
<circle cx="9.65552" cy="9.65552" r="9.65552" transform="matrix(0.715645 0.698464 -0.715645 0.698464 113.191 54.5945)" fill="#FFBD29"/>
<circle cx="9.65552" cy="9.65552" r="9.65552" transform="matrix(0.715645 0.698464 -0.715645 0.698464 18.4263 37.8951)" fill="#FCDE7E"/>
<circle cx="9.65552" cy="9.65552" r="9.65552" transform="matrix(0.715645 0.698464 -0.715645 0.698464 36.8525 19.9109)" fill="#FFBD29"/>
<circle cx="9.65552" cy="9.65552" r="9.65552" transform="matrix(0.715645 0.698464 -0.715645 0.698464 57.2534 0)" fill="#3A825E"/>
</svg>
