<svg width="103" height="130" viewBox="0 0 103 130" fill="none" xmlns="http://www.w3.org/2000/svg">
<path d="M29.7071 42.1796L26.4166 38.9682C22.9638 35.5983 22.9638 30.1346 26.4166 26.7647V26.7647C29.8694 23.3948 29.8694 17.9311 26.4166 14.5612L14.5711 3.00001" stroke="#FCDE7E" stroke-width="8.175"/>
<path d="M4.40624 54.7722L9.0789 53.5502C13.6973 52.3424 18.4657 55.0951 19.7296 59.6984V59.6984C20.9934 64.3018 25.7618 67.0545 30.3802 65.8467L37.3003 64.037" stroke="#00696F" stroke-width="8.175"/>
<path d="M53.9703 52.0824L54.8861 47.8277C55.9126 43.0588 60.6186 39.9872 65.3973 40.967V40.967C70.176 41.9468 74.882 38.8752 75.9085 34.1063L77.3027 27.6293" stroke="#0157A0" stroke-width="8.175"/>
<path d="M99.3316 92.3121L82.1278 89.6063C77.3762 88.859 74.2379 84.317 75.2211 79.6104V79.6104C76.1769 75.0351 73.2355 70.5867 68.6513 69.6745L61.4491 68.2413" stroke="#B8BD01" stroke-width="8.175"/>
<path d="M3.99604 124.468L13.0592 97.5228C14.6323 92.8459 19.9077 90.454 24.4721 92.348V92.348C28.7719 94.1322 33.7648 92.1187 35.624 87.8508L38.448 81.3679" stroke="#FF6E3D" stroke-width="8.175"/>
</svg>
