<svg width="92" height="129" viewBox="0 0 92 129" fill="none" xmlns="http://www.w3.org/2000/svg">
<path d="M3.69975 80.0564C1.65643 76.6022 2.83438 72.2049 6.33077 70.2347L49.171 46.0947C50.7248 45.2192 52.5581 44.9387 54.3221 45.3067L68.8627 48.3398C73.0825 49.2201 75.6638 53.4561 74.4428 57.4969L70.0901 71.9013C69.5609 73.6527 68.3694 75.1331 66.7584 76.0408L24.0136 100.127C20.5172 102.097 16.0264 100.894 13.9831 97.4401L3.69975 80.0564Z" fill="#FFBD29"/>
<path d="M44.7995 103.241C45.9578 99.3983 50.0238 97.1812 53.8812 98.2888L78.2959 105.299C80.0002 105.789 81.4585 106.882 82.3963 108.373L84.7169 112.063C86.9859 115.671 85.6078 120.469 81.747 122.404L77.5688 124.497C75.9141 125.326 74.0112 125.505 72.2439 124.998L47.9342 118.017C44.0768 116.91 41.8888 112.897 43.047 109.054L44.7995 103.241Z" fill="#FCDE7E"/>
<path d="M50.2344 6.71497C53.7308 8.68514 54.9088 13.0824 52.8654 16.5366L40.2571 37.8505C39.3337 39.4115 37.8528 40.5832 36.1053 41.1352L31.7199 42.5206C27.6767 43.7979 23.4111 41.4675 22.4144 37.4368L21.27 32.8088C20.8236 31.0034 21.1088 29.091 22.0658 27.4733L34.6179 6.25433C36.6613 2.80017 41.1521 1.59717 44.6485 3.56734L50.2344 6.71497Z" fill="#B8BD01"/>
</svg>
